<mxfile host="app.diagrams.net" agent="Mozilla/5.0 (X11; Linux x86_64) AppleWebKit/537.36 (KHTML, like Gecko) Chrome/131.0.0.0 Safari/537.36" version="26.2.8">
  <diagram id="state-diagram" name="State Diagram">
    <mxGraphModel dx="544" dy="357" grid="1" gridSize="10" guides="1" tooltips="1" connect="1" arrows="1" fold="1" page="1" pageScale="1" pageWidth="850" pageHeight="1100" math="0" shadow="0">
      <root>
        <mxCell id="0" />
        <mxCell id="1" parent="0" />
        <mxCell id="normal_state" value="Normal" style="ellipse;whiteSpace=wrap;html=1;aspect=fixed;fillColor=#dae8fc;strokeColor=#6c8ebf;" parent="1" vertex="1">
          <mxGeometry x="350" y="120" width="80" height="80" as="geometry" />
        </mxCell>
        <mxCell id="cautious_state" value="Cautious" style="ellipse;whiteSpace=wrap;html=1;aspect=fixed;fillColor=#fff2cc;strokeColor=#d6b656;" parent="1" vertex="1">
          <mxGeometry x="300" y="250" width="80" height="80" as="geometry" />
        </mxCell>
        <mxCell id="emergency_state" value="Emergency" style="ellipse;whiteSpace=wrap;html=1;aspect=fixed;fillColor=#f8cecc;strokeColor=#b85450;" parent="1" vertex="1">
          <mxGeometry x="425" y="310" width="80" height="80" as="geometry" />
        </mxCell>
        <mxCell id="normal_to_cautious" value="0.3" style="edgeStyle=orthogonalEdgeStyle;rounded=0;orthogonalLoop=1;jettySize=auto;html=1;exitX=0;exitY=1;exitDx=0;exitDy=0;" parent="1" source="normal_state" target="cautious_state" edge="1">
          <mxGeometry relative="1" as="geometry">
            <Array as="points">
              <mxPoint x="270" y="188" />
              <mxPoint x="270" y="200" />
              <mxPoint x="268" y="200" />
              <mxPoint x="268" y="262" />
            </Array>
          </mxGeometry>
        </mxCell>
        <mxCell id="normal_to_emergency" value="0.1" style="edgeStyle=orthogonalEdgeStyle;rounded=0;orthogonalLoop=1;jettySize=auto;html=1;exitX=1;exitY=1;exitDx=0;exitDy=0;entryX=0;entryY=0;entryDx=0;entryDy=0;" parent="1" source="normal_state" target="emergency_state" edge="1">
          <mxGeometry relative="1" as="geometry" />
        </mxCell>
        <mxCell id="normal_to_normal" value="0.6" style="edgeStyle=orthogonalEdgeStyle;rounded=0;orthogonalLoop=1;jettySize=auto;html=1;exitX=0.908;exitY=0.255;exitDx=0;exitDy=0;entryX=0.5;entryY=0;entryDx=0;entryDy=0;curved=1;exitPerimeter=0;" parent="1" source="normal_state" target="normal_state" edge="1">
          <mxGeometry relative="1" as="geometry">
            <Array as="points">
              <mxPoint x="430" y="140" />
              <mxPoint x="430" y="120" />
              <mxPoint x="450" y="120" />
              <mxPoint x="450" y="90" />
              <mxPoint x="418" y="90" />
              <mxPoint x="418" y="120" />
            </Array>
          </mxGeometry>
        </mxCell>
        <mxCell id="cautious_to_normal" value="0.4" style="edgeStyle=orthogonalEdgeStyle;rounded=0;orthogonalLoop=1;jettySize=auto;html=1;entryX=0;entryY=0.5;entryDx=0;entryDy=0;" parent="1" target="normal_state" edge="1">
          <mxGeometry relative="1" as="geometry">
            <mxPoint x="340" y="330" as="sourcePoint" />
            <Array as="points">
              <mxPoint x="180" y="400" />
              <mxPoint x="180" y="160" />
            </Array>
          </mxGeometry>
        </mxCell>
        <mxCell id="cautious_to_emergency" value="0.1" style="edgeStyle=orthogonalEdgeStyle;rounded=0;orthogonalLoop=1;jettySize=auto;html=1;exitX=1;exitY=0.5;exitDx=0;exitDy=0;entryX=0;entryY=0.5;entryDx=0;entryDy=0;" parent="1" source="cautious_state" target="emergency_state" edge="1">
          <mxGeometry relative="1" as="geometry" />
        </mxCell>
        <mxCell id="cautious_to_cautious" value="0.5" style="edgeStyle=orthogonalEdgeStyle;rounded=0;orthogonalLoop=1;jettySize=auto;html=1;exitX=0.242;exitY=0.921;exitDx=0;exitDy=0;curved=1;exitPerimeter=0;entryX=0;entryY=0.5;entryDx=0;entryDy=0;" parent="1" source="cautious_state" target="cautious_state" edge="1">
          <mxGeometry relative="1" as="geometry">
            <Array as="points">
              <mxPoint x="300" y="324" />
              <mxPoint x="300" y="320" />
              <mxPoint x="240" y="320" />
              <mxPoint x="240" y="290" />
              <mxPoint x="280" y="290" />
              <mxPoint x="280" y="270" />
              <mxPoint x="300" y="270" />
            </Array>
            <mxPoint x="230" y="270" as="targetPoint" />
          </mxGeometry>
        </mxCell>
        <mxCell id="emergency_to_normal" value="0.1" style="edgeStyle=orthogonalEdgeStyle;rounded=0;orthogonalLoop=1;jettySize=auto;html=1;exitX=0.5;exitY=0;exitDx=0;exitDy=0;entryX=1;entryY=0.5;entryDx=0;entryDy=0;" parent="1" source="emergency_state" target="normal_state" edge="1">
          <mxGeometry relative="1" as="geometry">
            <Array as="points">
              <mxPoint x="540" y="160" />
            </Array>
          </mxGeometry>
        </mxCell>
        <mxCell id="emergency_to_cautious" value="0.7" style="edgeStyle=orthogonalEdgeStyle;rounded=0;orthogonalLoop=1;jettySize=auto;html=1;exitX=0;exitY=0.5;exitDx=0;exitDy=0;entryX=1;entryY=0.5;entryDx=0;entryDy=0;" parent="1" source="emergency_state" target="cautious_state" edge="1">
          <mxGeometry relative="1" as="geometry" />
        </mxCell>
        <mxCell id="emergency_to_emergency" value="0.2" style="edgeStyle=orthogonalEdgeStyle;rounded=0;orthogonalLoop=1;jettySize=auto;html=1;exitX=1;exitY=0.5;exitDx=0;exitDy=0;entryX=1;entryY=0;entryDx=0;entryDy=0;curved=1;" parent="1" source="emergency_state" target="emergency_state" edge="1">
          <mxGeometry relative="1" as="geometry">
            <Array as="points">
              <mxPoint x="505" y="360" />
              <mxPoint x="540" y="360" />
              <mxPoint x="540" y="400" />
              <mxPoint x="568" y="400" />
              <mxPoint x="568" y="322" />
            </Array>
          </mxGeometry>
        </mxCell>
      </root>
    </mxGraphModel>
  </diagram>
</mxfile>
